<svg width="31" height="31" viewBox="0 0 31 31" fill="none" xmlns="http://www.w3.org/2000/svg">
<path d="M3.875 9.04167V6.45833C3.875 5.77319 4.14717 5.11611 4.63164 4.63164C5.11611 4.14717 5.77319 3.875 6.45833 3.875H9.04167M21.9583 3.875H24.5417C25.2268 3.875 25.8839 4.14717 26.3684 4.63164C26.8528 5.11611 27.125 5.77319 27.125 6.45833V9.04167M27.125 21.9583V24.5417C27.125 25.2268 26.8528 25.8839 26.3684 26.3684C25.8839 26.8528 25.2268 27.125 24.5417 27.125H21.9583M9.04167 27.125H6.45833C5.77319 27.125 5.11611 26.8528 4.63164 26.3684C4.14717 25.8839 3.875 25.2268 3.875 24.5417V21.9583" stroke="white" stroke-width="2" stroke-linecap="round" stroke-linejoin="round"/>
<path d="M8.5 20L8.5 10" stroke="white" stroke-linecap="round"/>
<path d="M10.5 20L10.5 10" stroke="white" stroke-linecap="round"/>
<path d="M12.5 20L12.5 10" stroke="white" stroke-linecap="round"/>
<path d="M14.5 20L14.5 10" stroke="white" stroke-linecap="round"/>
<path d="M16.5 20L16.5 10" stroke="white" stroke-linecap="round"/>
<path d="M18.5 20L18.5 10" stroke="white" stroke-linecap="round"/>
<path d="M20.5 20L20.5 10" stroke="white" stroke-linecap="round"/>
<path d="M22.5 20L22.5 10" stroke="white" stroke-linecap="round"/>
</svg>
